<?xml version="1.0" encoding="UTF-8"?>
<svg xmlns="http://www.w3.org/2000/svg" viewBox="0 0 1200 630" width="1200" height="630">
  <defs>
    <linearGradient id="g61840" x1="62.94095225512604%" y1="1.7037086855465873%" x2="37.05904774487396%" y2="98.29629131445341%">
      <stop offset="0%" stop-color="#1E40AF"/>
      <stop offset="100%" stop-color="#1E3A8A"/>
    </linearGradient>
  </defs>
  <rect width="1200" height="630" fill="url(#g61840)"/>
  <polygon points="370.35978589672595,244.60583238396794 440.35978589672595,204.60583238396794 510.35978589672595,244.60583238396794 440.35978589672595,284.60583238396794" fill="rgba(255,255,255,0.08)" stroke="rgba(255,255,255,0.15)" stroke-width="2"/><line x1="500.35978589672595" y1="249.60583238396794" x2="500.35978589672595" y2="304.60583238396794" stroke="rgba(255,255,255,0.12)" stroke-width="2"/><path d="M 855.8052153792232 350.85791846737266 C 825.8052153792232 340.85791846737266 775.8052153792232 345.85791846737266 765.8052153792232 280.85791846737266 L 855.8052153792232 290.85791846737266 L 945.8052153792232 280.85791846737266 C 935.8052153792232 345.85791846737266 885.8052153792232 340.85791846737266 855.8052153792232 350.85791846737266 Z" fill="rgba(255,255,255,0.06)" stroke="rgba(255,255,255,0.12)" stroke-width="1.5"/><line x1="855.8052153792232" y1="350.85791846737266" x2="855.8052153792232" y2="290.85791846737266" stroke="rgba(255,255,255,0.12)" stroke-width="1.5"/><rect x="243.60304330475628" y="413.15095914527774" width="8" height="100" rx="1" fill="rgba(255,255,255,0.1)" transform="rotate(47.39585543517023 243.60304330475628 413.15095914527774)"/><circle cx="1037.1914982330054" cy="165.2961860410869" r="30" fill="none" stroke="rgba(255,255,255,0.12)" stroke-width="2"/><line x1="1027.1914982330054" y1="195.2961860410869" x2="1047.1914982330054" y2="195.2961860410869" stroke="rgba(255,255,255,0.1)" stroke-width="2"/><line x1="1029.1914982330054" y1="202.2961860410869" x2="1045.1914982330054" y2="202.2961860410869" stroke="rgba(255,255,255,0.1)" stroke-width="2"/><circle cx="249.77790568955243" cy="561.2229840760119" r="5.994718367233872" fill="rgba(255,255,255,0.06279424967244268)"/><circle cx="117.20166765153408" cy="418.4802984725684" r="2.6825222531333566" fill="rgba(255,255,255,0.05732889322564006)"/><circle cx="644.8589787818491" cy="267.4661111179739" r="5.650319533422589" fill="rgba(255,255,255,0.07810886926949025)"/><circle cx="405.718830274418" cy="141.2738392013125" r="5.405275482684374" fill="rgba(255,255,255,0.0419817179441452)"/><circle cx="751.3557910453528" cy="233.63972302759066" r="2.986139103770256" fill="rgba(255,255,255,0.053087518438696864)"/><circle cx="1093.147746170871" cy="275.7201477861963" r="3.384142715483904" fill="rgba(255,255,255,0.10824285255745053)"/><circle cx="977.5975494412705" cy="537.0906753372401" r="5.476538132876158" fill="rgba(255,255,255,0.11908494669944047)"/><circle cx="1048.3787639532238" cy="369.25484315725043" r="5.1875878954306245" fill="rgba(255,255,255,0.09276969822123647)"/><circle cx="555.7618362363428" cy="53.46387339755893" r="2.441548690199852" fill="rgba(255,255,255,0.09838402619585396)"/><circle cx="634.5051298383623" cy="557.1469523152336" r="3.432347890920937" fill="rgba(255,255,255,0.1065371733158827)"/><circle cx="969.8687136173248" cy="334.13784217787907" r="5.738985702395439" fill="rgba(255,255,255,0.04166368855163455)"/><circle cx="804.6056211693212" cy="243.52998716756701" r="5.379512749612331" fill="rgba(255,255,255,0.04741944806650281)"/><circle cx="214.47519012726843" cy="269.4481316092424" r="3.219635086134076" fill="rgba(255,255,255,0.0625649968907237)"/><circle cx="605.573186930269" cy="227.20219121780246" r="2.0076223257929087" fill="rgba(255,255,255,0.09346547219902276)"/><circle cx="739.3974796170369" cy="253.7406873051077" r="2.0659393426030874" fill="rgba(255,255,255,0.08966705013066531)"/>
  <circle cx="983.6448923684657" cy="427.3244650103152" r="1.1191650130786002" fill="rgba(255,255,255,0.06957182168960571)"/><circle cx="1011.3428134471178" cy="476.04923330945894" r="1.908956521190703" fill="rgba(255,255,255,0.07861780204810202)"/><circle cx="673.8847676664591" cy="117.19533367780969" r="2.371647972147912" fill="rgba(255,255,255,0.07080537032568827)"/><circle cx="360.1756847463548" cy="72.87611925043166" r="2.512104840017855" fill="rgba(255,255,255,0.07682511404389517)"/><circle cx="467.7173207513988" cy="228.1582578434609" r="1.7167528476566076" fill="rgba(255,255,255,0.056865006610751154)"/><circle cx="301.7141464166343" cy="460.6653232150711" r="1.0606653010472655" fill="rgba(255,255,255,0.04485684986691922)"/><circle cx="222.4517804570496" cy="71.77274014335126" r="1.3842064766213298" fill="rgba(255,255,255,0.07073417695472017)"/><circle cx="509.5262554474175" cy="178.224788303487" r="2.4192422847263515" fill="rgba(255,255,255,0.0719685727218166)"/><circle cx="736.4806459285319" cy="471.4137614239007" r="1.5752164828591049" fill="rgba(255,255,255,0.05971200904576108)"/><circle cx="166.2131080403924" cy="18.17491759546101" r="1.7395334565080702" fill="rgba(255,255,255,0.03844879893120378)"/><circle cx="753.0988594517112" cy="575.1589220250025" r="1.0688360682688653" fill="rgba(255,255,255,0.07375966934021563)"/><circle cx="119.68014109879732" cy="124.33781819650903" r="2.289752183947712" fill="rgba(255,255,255,0.03617832202697173)"/><circle cx="646.4192264713347" cy="261.3169437437318" r="1.8199124396778643" fill="rgba(255,255,255,0.06918898677220568)"/><circle cx="924.9060267582536" cy="137.9441994591616" r="1.3628588877618313" fill="rgba(255,255,255,0.06065938549116254)"/><circle cx="415.99451852962375" cy="145.7144895521924" r="1.3064629537984729" fill="rgba(255,255,255,0.04234086736803874)"/><circle cx="506.33066296577454" cy="155.51483992254362" r="2.6286609871312976" fill="rgba(255,255,255,0.07971015182090924)"/><circle cx="1038.2898786105216" cy="504.343417477794" r="2.1435559378005564" fill="rgba(255,255,255,0.04500268068630248)"/><circle cx="888.1200875155628" cy="628.5282401461154" r="2.4710303409956396" fill="rgba(255,255,255,0.03077467660885304)"/><circle cx="22.961329109966755" cy="17.86215255735442" r="1.1330572930164635" fill="rgba(255,255,255,0.0681417223950848)"/><circle cx="98.88008320704103" cy="330.1536843390204" r="2.7995599191635847" fill="rgba(255,255,255,0.03454513907898217)"/>
  <text x="600" y="335" font-family="system-ui, -apple-system, 'Segoe UI', sans-serif" font-size="68" font-weight="700" fill="rgba(0,0,0,0.15)" text-anchor="middle" letter-spacing="1">QUDURAT</text>
  <text x="600" y="332" font-family="system-ui, -apple-system, 'Segoe UI', sans-serif" font-size="68" font-weight="700" fill="white" text-anchor="middle" letter-spacing="1">QUDURAT</text>
  <g transform="translate(1140, 575)">
    <rect x="0" y="0" width="40" height="40" rx="8" fill="rgba(255,255,255,0.15)"/>
    <text x="20" y="29" font-family="sans-serif" font-weight="bold" font-size="24" fill="rgba(255,255,255,0.6)" text-anchor="middle">K</text>
  </g>
</svg>